<?xml version="1.0" standalone="no"?><!DOCTYPE svg PUBLIC "-//W3C//DTD SVG 1.1//EN" "http://www.w3.org/Graphics/SVG/1.1/DTD/svg11.dtd"><svg t="1513224465876" class="icon" style="" viewBox="0 0 1024 1024" version="1.1" xmlns="http://www.w3.org/2000/svg" p-id="1866" xmlns:xlink="http://www.w3.org/1999/xlink" width="20" height="20"><defs><style type="text/css"></style></defs><path d="M821.29 406.29H619.71V204.71C619.71 146 571.69 98 513 98c-58.69 0-106.71 48-106.71 106.71v201.58H204.71C146 406.29 98 454.31 98 513c0 58.69 48 106.71 106.71 106.71h201.58v201.58C406.29 880 454.31 928 513 928c58.69 0 106.71-48 106.71-106.71V619.71h201.58C880 619.71 928 571.69 928 513c0-58.69-48-106.71-106.71-106.71z" p-id="1867" fill="#ffffff"></path></svg>