<?xml version="1.0" standalone="no"?><!DOCTYPE svg PUBLIC "-//W3C//DTD SVG 1.1//EN" "http://www.w3.org/Graphics/SVG/1.1/DTD/svg11.dtd"><svg t="1513236236850" class="icon" style="" viewBox="0 0 1024 1024" version="1.1" xmlns="http://www.w3.org/2000/svg" p-id="2779" xmlns:xlink="http://www.w3.org/1999/xlink" width="20" height="20"><defs><style type="text/css"></style></defs><path d="M511.956 493.93c-100.537 0-182.068 81.519-182.068 182.062 0 100.545 81.532 182.042 182.068 182.042 100.563 0 182.075-81.496 182.075-182.042 0-100.543-81.512-182.063-182.074-182.063v0zM511.956 493.93z" fill="#409EFF" p-id="2780"></path><path d="M948.269 357.42h-190.226c-10.118-31.029-44.608-123.886-95.116-123.886h-301.936c-46.799 0-84.678 92.857-96.039 123.886h-189.31c-35.719 0-64.641 30.667-64.641 68.446v530.441c0 37.798 28.924 68.452 64.641 68.452h872.628c35.719 0 64.654-30.654 64.654-68.452v-530.453c0.001-37.787-28.945-68.434-64.652-68.434v0zM511.842 903.826c-125.674 0-227.548-101.908-227.549-227.606 0-125.7 101.874-227.612 227.548-227.612 125.65 0 227.542 101.913 227.542 227.612 0 125.699-101.893 227.606-227.542 227.606v0zM838.133 493.995c-20.912 0-37.871-17.004-37.871-37.995 0-21.001 16.959-38.010 37.871-38.010 20.935 0 37.908 17.009 37.909 38.010 0 20.984-16.972 37.995-37.908 37.995v0zM838.133 493.995z" fill="#409EFF" p-id="2781"></path><path d="M233.080 298.354c0 13.579-11.008 24.582-24.583 24.582h-114.238c-13.574 0-24.582-11.002-24.582-24.582v0c0-13.58 11.008-24.583 24.582-24.583h114.238c13.572 0 24.582 11.002 24.582 24.583v0 0zM233.080 298.354z" fill="#409EFF" p-id="2782"></path></svg>