<?xml version="1.0" standalone="no"?><!DOCTYPE svg PUBLIC "-//W3C//DTD SVG 1.1//EN" "http://www.w3.org/Graphics/SVG/1.1/DTD/svg11.dtd"><svg t="1513515115969" class="icon" style="" viewBox="0 0 1024 1024" version="1.1" xmlns="http://www.w3.org/2000/svg" p-id="3476" xmlns:xlink="http://www.w3.org/1999/xlink" width="40" height="40"><defs><style type="text/css"></style></defs><path d="M249.1 364.8c2.4 16.5 12.1 31.1 26.6 39.5 0 3.6-0.6 7-0.6 10.6-2.9 80.4 39.5 155.6 109.9 194.6l1.8 1s32.6 29.4 121.9 29.4c87.2 0 121.3-29.4 121.3-29.4 71.4-38.6 114.8-114.4 111.7-195.5 0-3.5-0.3-6.8-0.6-10.2 14.6-8.5 24.4-23.3 26.6-40v-94l103.7-37.6 26-9.4 26-9.4L508.4 64 93.8 214.4l155.3 56.3v94.1z m259.3 230c-93.2 1.3-172.3-68-183.4-160.6 59.1 25.7 122.3 40.5 186.7 43.8 62.2-3.1 123.3-17.8 180.1-43.3-11.3 92.4-90.3 161.5-183.4 160.3v-0.2zM309.2 297.7L508.4 366l202.5-68.3v53.9c-9.8 9.8-21.5 17.5-34.4 22.7-2.9 2.2-6 4.1-9.3 5.7-99.3 53.3-218.7 53.1-317.8-0.6-2.9-1.5-5.7-3.2-8.4-5.1-12.2-5.1-23.1-12.9-32-22.8v-53.8h0.2z m375.5 326.4L562.5 845.9 544.6 793l33.5-66.7-66.9-66.7-66.9 66.7 33.5 66.7-21.5 54.1-118.9-223S64.1 770.1 64.1 889.8c0 36.5 14.9 70.2 52 70.2H908c36.7 0 52.3-33.5 52.3-69.7 0-115.9-275.4-266-275.4-266l-0.2-0.2z" fill="#409EFF" p-id="3477"></path></svg>